<mxfile host="app.diagrams.net" modified="2021-06-03T09:45:02.969Z" agent="5.0 (Windows NT 10.0; Win64; x64) AppleWebKit/537.36 (KHTML, like Gecko) Chrome/91.0.4472.77 Safari/537.36 Edg/91.0.864.37" etag="3NtYjr_1NfuX5e7Qb7sV" version="14.6.11" type="github">
  <diagram id="7tSAv12gevjoQDR8pcY1" name="Page-1">
    <mxGraphModel dx="1730" dy="1028" grid="1" gridSize="10" guides="1" tooltips="1" connect="1" arrows="1" fold="1" page="1" pageScale="1" pageWidth="827" pageHeight="1169" math="0" shadow="0">
      <root>
        <mxCell id="0" />
        <mxCell id="1" parent="0" />
        <mxCell id="koVC8w1GK1J-4nf__hGJ-95" style="edgeStyle=orthogonalEdgeStyle;rounded=0;orthogonalLoop=1;jettySize=auto;html=1;exitX=1;exitY=0.5;exitDx=0;exitDy=0;entryX=0;entryY=0.5;entryDx=0;entryDy=0;" edge="1" parent="1" source="koVC8w1GK1J-4nf__hGJ-2" target="koVC8w1GK1J-4nf__hGJ-92">
          <mxGeometry relative="1" as="geometry">
            <Array as="points">
              <mxPoint x="350" y="185" />
              <mxPoint x="350" y="235" />
            </Array>
          </mxGeometry>
        </mxCell>
        <mxCell id="koVC8w1GK1J-4nf__hGJ-2" value="" style="rounded=0;whiteSpace=wrap;html=1;" vertex="1" parent="1">
          <mxGeometry x="70" y="170" width="60" height="30" as="geometry" />
        </mxCell>
        <mxCell id="koVC8w1GK1J-4nf__hGJ-40" style="edgeStyle=orthogonalEdgeStyle;rounded=0;orthogonalLoop=1;jettySize=auto;html=1;entryX=0;entryY=0.5;entryDx=0;entryDy=0;" edge="1" parent="1" source="koVC8w1GK1J-4nf__hGJ-3" target="koVC8w1GK1J-4nf__hGJ-39">
          <mxGeometry relative="1" as="geometry" />
        </mxCell>
        <mxCell id="koVC8w1GK1J-4nf__hGJ-3" value="" style="rounded=0;whiteSpace=wrap;html=1;" vertex="1" parent="1">
          <mxGeometry x="70" y="230" width="60" height="30" as="geometry" />
        </mxCell>
        <mxCell id="koVC8w1GK1J-4nf__hGJ-42" style="edgeStyle=orthogonalEdgeStyle;rounded=0;orthogonalLoop=1;jettySize=auto;html=1;entryX=0;entryY=0.5;entryDx=0;entryDy=0;" edge="1" parent="1" source="koVC8w1GK1J-4nf__hGJ-4" target="koVC8w1GK1J-4nf__hGJ-39">
          <mxGeometry relative="1" as="geometry" />
        </mxCell>
        <mxCell id="koVC8w1GK1J-4nf__hGJ-4" value="" style="rounded=0;whiteSpace=wrap;html=1;" vertex="1" parent="1">
          <mxGeometry x="70" y="290" width="60" height="30" as="geometry" />
        </mxCell>
        <mxCell id="koVC8w1GK1J-4nf__hGJ-89" style="edgeStyle=orthogonalEdgeStyle;rounded=0;orthogonalLoop=1;jettySize=auto;html=1;entryX=0;entryY=0.5;entryDx=0;entryDy=0;" edge="1" parent="1" source="koVC8w1GK1J-4nf__hGJ-6" target="koVC8w1GK1J-4nf__hGJ-87">
          <mxGeometry relative="1" as="geometry">
            <Array as="points">
              <mxPoint x="350" y="435" />
              <mxPoint x="350" y="475" />
            </Array>
          </mxGeometry>
        </mxCell>
        <mxCell id="koVC8w1GK1J-4nf__hGJ-6" value="" style="rounded=0;whiteSpace=wrap;html=1;" vertex="1" parent="1">
          <mxGeometry x="70" y="420" width="60" height="30" as="geometry" />
        </mxCell>
        <mxCell id="koVC8w1GK1J-4nf__hGJ-7" value="" style="rounded=0;whiteSpace=wrap;html=1;" vertex="1" parent="1">
          <mxGeometry x="70" y="480" width="60" height="30" as="geometry" />
        </mxCell>
        <mxCell id="koVC8w1GK1J-4nf__hGJ-8" value="" style="rounded=0;whiteSpace=wrap;html=1;" vertex="1" parent="1">
          <mxGeometry x="70" y="540" width="60" height="30" as="geometry" />
        </mxCell>
        <mxCell id="koVC8w1GK1J-4nf__hGJ-25" value="" style="rounded=0;whiteSpace=wrap;html=1;" vertex="1" parent="1">
          <mxGeometry x="70" y="600" width="60" height="30" as="geometry" />
        </mxCell>
        <mxCell id="koVC8w1GK1J-4nf__hGJ-26" value="" style="rounded=0;whiteSpace=wrap;html=1;" vertex="1" parent="1">
          <mxGeometry x="70" y="670" width="60" height="30" as="geometry" />
        </mxCell>
        <mxCell id="koVC8w1GK1J-4nf__hGJ-86" style="edgeStyle=orthogonalEdgeStyle;rounded=0;orthogonalLoop=1;jettySize=auto;html=1;exitX=1;exitY=0.5;exitDx=0;exitDy=0;entryX=0;entryY=0.5;entryDx=0;entryDy=0;" edge="1" parent="1" source="koVC8w1GK1J-4nf__hGJ-27" target="koVC8w1GK1J-4nf__hGJ-82">
          <mxGeometry relative="1" as="geometry">
            <Array as="points">
              <mxPoint x="350" y="745" />
              <mxPoint x="350" y="685" />
            </Array>
          </mxGeometry>
        </mxCell>
        <mxCell id="koVC8w1GK1J-4nf__hGJ-27" value="" style="rounded=0;whiteSpace=wrap;html=1;" vertex="1" parent="1">
          <mxGeometry x="70" y="730" width="60" height="30" as="geometry" />
        </mxCell>
        <mxCell id="koVC8w1GK1J-4nf__hGJ-29" value="" style="rounded=0;whiteSpace=wrap;html=1;" vertex="1" parent="1">
          <mxGeometry x="70" y="850" width="60" height="30" as="geometry" />
        </mxCell>
        <mxCell id="koVC8w1GK1J-4nf__hGJ-30" value="" style="rounded=0;whiteSpace=wrap;html=1;" vertex="1" parent="1">
          <mxGeometry x="70" y="920" width="60" height="30" as="geometry" />
        </mxCell>
        <mxCell id="koVC8w1GK1J-4nf__hGJ-81" style="edgeStyle=orthogonalEdgeStyle;rounded=0;orthogonalLoop=1;jettySize=auto;html=1;exitX=1;exitY=0.5;exitDx=0;exitDy=0;entryX=0;entryY=0.5;entryDx=0;entryDy=0;" edge="1" parent="1" source="koVC8w1GK1J-4nf__hGJ-31" target="koVC8w1GK1J-4nf__hGJ-78">
          <mxGeometry relative="1" as="geometry">
            <Array as="points">
              <mxPoint x="350" y="995" />
              <mxPoint x="350" y="955" />
            </Array>
          </mxGeometry>
        </mxCell>
        <mxCell id="koVC8w1GK1J-4nf__hGJ-31" value="" style="rounded=0;whiteSpace=wrap;html=1;" vertex="1" parent="1">
          <mxGeometry x="70" y="980" width="60" height="30" as="geometry" />
        </mxCell>
        <mxCell id="koVC8w1GK1J-4nf__hGJ-93" style="edgeStyle=orthogonalEdgeStyle;rounded=0;orthogonalLoop=1;jettySize=auto;html=1;exitX=1;exitY=0.5;exitDx=0;exitDy=0;entryX=0;entryY=0.5;entryDx=0;entryDy=0;" edge="1" parent="1" source="koVC8w1GK1J-4nf__hGJ-39" target="koVC8w1GK1J-4nf__hGJ-92">
          <mxGeometry relative="1" as="geometry">
            <Array as="points">
              <mxPoint x="350" y="275" />
              <mxPoint x="350" y="235" />
            </Array>
          </mxGeometry>
        </mxCell>
        <mxCell id="koVC8w1GK1J-4nf__hGJ-39" value="" style="rounded=0;whiteSpace=wrap;html=1;" vertex="1" parent="1">
          <mxGeometry x="250" y="260" width="60" height="30" as="geometry" />
        </mxCell>
        <mxCell id="koVC8w1GK1J-4nf__hGJ-43" style="edgeStyle=orthogonalEdgeStyle;rounded=0;orthogonalLoop=1;jettySize=auto;html=1;entryX=0;entryY=0.5;entryDx=0;entryDy=0;" edge="1" parent="1" source="koVC8w1GK1J-4nf__hGJ-44" target="koVC8w1GK1J-4nf__hGJ-47">
          <mxGeometry relative="1" as="geometry" />
        </mxCell>
        <mxCell id="koVC8w1GK1J-4nf__hGJ-44" value="" style="rounded=0;whiteSpace=wrap;html=1;" vertex="1" parent="1">
          <mxGeometry x="70" y="480" width="60" height="30" as="geometry" />
        </mxCell>
        <mxCell id="koVC8w1GK1J-4nf__hGJ-45" style="edgeStyle=orthogonalEdgeStyle;rounded=0;orthogonalLoop=1;jettySize=auto;html=1;entryX=0;entryY=0.5;entryDx=0;entryDy=0;" edge="1" parent="1" source="koVC8w1GK1J-4nf__hGJ-46" target="koVC8w1GK1J-4nf__hGJ-47">
          <mxGeometry relative="1" as="geometry" />
        </mxCell>
        <mxCell id="koVC8w1GK1J-4nf__hGJ-46" value="" style="rounded=0;whiteSpace=wrap;html=1;" vertex="1" parent="1">
          <mxGeometry x="70" y="540" width="60" height="30" as="geometry" />
        </mxCell>
        <mxCell id="koVC8w1GK1J-4nf__hGJ-91" style="edgeStyle=orthogonalEdgeStyle;rounded=0;orthogonalLoop=1;jettySize=auto;html=1;exitX=1;exitY=0.5;exitDx=0;exitDy=0;entryX=0;entryY=0.5;entryDx=0;entryDy=0;" edge="1" parent="1" source="koVC8w1GK1J-4nf__hGJ-47" target="koVC8w1GK1J-4nf__hGJ-87">
          <mxGeometry relative="1" as="geometry">
            <Array as="points">
              <mxPoint x="350" y="525" />
              <mxPoint x="350" y="475" />
            </Array>
          </mxGeometry>
        </mxCell>
        <mxCell id="koVC8w1GK1J-4nf__hGJ-47" value="" style="rounded=0;whiteSpace=wrap;html=1;" vertex="1" parent="1">
          <mxGeometry x="250" y="510" width="60" height="30" as="geometry" />
        </mxCell>
        <mxCell id="koVC8w1GK1J-4nf__hGJ-48" style="edgeStyle=orthogonalEdgeStyle;rounded=0;orthogonalLoop=1;jettySize=auto;html=1;entryX=0;entryY=0.5;entryDx=0;entryDy=0;" edge="1" parent="1" source="koVC8w1GK1J-4nf__hGJ-49" target="koVC8w1GK1J-4nf__hGJ-52">
          <mxGeometry relative="1" as="geometry" />
        </mxCell>
        <mxCell id="koVC8w1GK1J-4nf__hGJ-49" value="" style="rounded=0;whiteSpace=wrap;html=1;" vertex="1" parent="1">
          <mxGeometry x="70" y="600" width="60" height="30" as="geometry" />
        </mxCell>
        <mxCell id="koVC8w1GK1J-4nf__hGJ-50" style="edgeStyle=orthogonalEdgeStyle;rounded=0;orthogonalLoop=1;jettySize=auto;html=1;entryX=0;entryY=0.5;entryDx=0;entryDy=0;" edge="1" parent="1" source="koVC8w1GK1J-4nf__hGJ-51" target="koVC8w1GK1J-4nf__hGJ-52">
          <mxGeometry relative="1" as="geometry" />
        </mxCell>
        <mxCell id="koVC8w1GK1J-4nf__hGJ-51" value="" style="rounded=0;whiteSpace=wrap;html=1;" vertex="1" parent="1">
          <mxGeometry x="70" y="670" width="60" height="30" as="geometry" />
        </mxCell>
        <mxCell id="koVC8w1GK1J-4nf__hGJ-84" style="edgeStyle=orthogonalEdgeStyle;rounded=0;orthogonalLoop=1;jettySize=auto;html=1;exitX=1;exitY=0.5;exitDx=0;exitDy=0;entryX=0;entryY=0.5;entryDx=0;entryDy=0;" edge="1" parent="1" source="koVC8w1GK1J-4nf__hGJ-52" target="koVC8w1GK1J-4nf__hGJ-82">
          <mxGeometry relative="1" as="geometry">
            <Array as="points">
              <mxPoint x="350" y="645" />
              <mxPoint x="350" y="685" />
            </Array>
          </mxGeometry>
        </mxCell>
        <mxCell id="koVC8w1GK1J-4nf__hGJ-52" value="" style="rounded=0;whiteSpace=wrap;html=1;" vertex="1" parent="1">
          <mxGeometry x="250" y="630" width="60" height="30" as="geometry" />
        </mxCell>
        <mxCell id="koVC8w1GK1J-4nf__hGJ-53" style="edgeStyle=orthogonalEdgeStyle;rounded=0;orthogonalLoop=1;jettySize=auto;html=1;entryX=0;entryY=0.5;entryDx=0;entryDy=0;" edge="1" parent="1" source="koVC8w1GK1J-4nf__hGJ-54" target="koVC8w1GK1J-4nf__hGJ-57">
          <mxGeometry relative="1" as="geometry" />
        </mxCell>
        <mxCell id="koVC8w1GK1J-4nf__hGJ-54" value="" style="rounded=0;whiteSpace=wrap;html=1;" vertex="1" parent="1">
          <mxGeometry x="70" y="850" width="60" height="30" as="geometry" />
        </mxCell>
        <mxCell id="koVC8w1GK1J-4nf__hGJ-55" style="edgeStyle=orthogonalEdgeStyle;rounded=0;orthogonalLoop=1;jettySize=auto;html=1;entryX=0;entryY=0.5;entryDx=0;entryDy=0;" edge="1" parent="1" source="koVC8w1GK1J-4nf__hGJ-56" target="koVC8w1GK1J-4nf__hGJ-57">
          <mxGeometry relative="1" as="geometry" />
        </mxCell>
        <mxCell id="koVC8w1GK1J-4nf__hGJ-56" value="" style="rounded=0;whiteSpace=wrap;html=1;" vertex="1" parent="1">
          <mxGeometry x="70" y="920" width="60" height="30" as="geometry" />
        </mxCell>
        <mxCell id="koVC8w1GK1J-4nf__hGJ-79" style="edgeStyle=orthogonalEdgeStyle;rounded=0;orthogonalLoop=1;jettySize=auto;html=1;entryX=0;entryY=0.5;entryDx=0;entryDy=0;" edge="1" parent="1" source="koVC8w1GK1J-4nf__hGJ-57" target="koVC8w1GK1J-4nf__hGJ-78">
          <mxGeometry relative="1" as="geometry">
            <Array as="points">
              <mxPoint x="350" y="895" />
              <mxPoint x="350" y="955" />
            </Array>
          </mxGeometry>
        </mxCell>
        <mxCell id="koVC8w1GK1J-4nf__hGJ-57" value="" style="rounded=0;whiteSpace=wrap;html=1;" vertex="1" parent="1">
          <mxGeometry x="250" y="880" width="60" height="30" as="geometry" />
        </mxCell>
        <mxCell id="koVC8w1GK1J-4nf__hGJ-104" style="edgeStyle=orthogonalEdgeStyle;rounded=0;orthogonalLoop=1;jettySize=auto;html=1;exitX=1;exitY=0.5;exitDx=0;exitDy=0;entryX=0;entryY=0.5;entryDx=0;entryDy=0;" edge="1" parent="1" source="koVC8w1GK1J-4nf__hGJ-78" target="koVC8w1GK1J-4nf__hGJ-101">
          <mxGeometry relative="1" as="geometry" />
        </mxCell>
        <mxCell id="koVC8w1GK1J-4nf__hGJ-78" value="" style="rounded=0;whiteSpace=wrap;html=1;" vertex="1" parent="1">
          <mxGeometry x="420" y="940" width="60" height="30" as="geometry" />
        </mxCell>
        <mxCell id="koVC8w1GK1J-4nf__hGJ-102" style="edgeStyle=orthogonalEdgeStyle;rounded=0;orthogonalLoop=1;jettySize=auto;html=1;exitX=1;exitY=0.5;exitDx=0;exitDy=0;entryX=0;entryY=0.5;entryDx=0;entryDy=0;" edge="1" parent="1" source="koVC8w1GK1J-4nf__hGJ-82" target="koVC8w1GK1J-4nf__hGJ-101">
          <mxGeometry relative="1" as="geometry" />
        </mxCell>
        <mxCell id="koVC8w1GK1J-4nf__hGJ-82" value="" style="rounded=0;whiteSpace=wrap;html=1;" vertex="1" parent="1">
          <mxGeometry x="420" y="670" width="60" height="30" as="geometry" />
        </mxCell>
        <mxCell id="koVC8w1GK1J-4nf__hGJ-100" style="edgeStyle=orthogonalEdgeStyle;rounded=0;orthogonalLoop=1;jettySize=auto;html=1;exitX=1;exitY=0.5;exitDx=0;exitDy=0;entryX=0;entryY=0.5;entryDx=0;entryDy=0;" edge="1" parent="1" source="koVC8w1GK1J-4nf__hGJ-87" target="koVC8w1GK1J-4nf__hGJ-97">
          <mxGeometry relative="1" as="geometry" />
        </mxCell>
        <mxCell id="koVC8w1GK1J-4nf__hGJ-87" value="" style="rounded=0;whiteSpace=wrap;html=1;" vertex="1" parent="1">
          <mxGeometry x="420" y="460" width="60" height="30" as="geometry" />
        </mxCell>
        <mxCell id="koVC8w1GK1J-4nf__hGJ-98" style="edgeStyle=orthogonalEdgeStyle;rounded=0;orthogonalLoop=1;jettySize=auto;html=1;exitX=1;exitY=0.5;exitDx=0;exitDy=0;entryX=0;entryY=0.5;entryDx=0;entryDy=0;" edge="1" parent="1" source="koVC8w1GK1J-4nf__hGJ-92" target="koVC8w1GK1J-4nf__hGJ-97">
          <mxGeometry relative="1" as="geometry" />
        </mxCell>
        <mxCell id="koVC8w1GK1J-4nf__hGJ-92" value="" style="rounded=0;whiteSpace=wrap;html=1;" vertex="1" parent="1">
          <mxGeometry x="420" y="220" width="60" height="30" as="geometry" />
        </mxCell>
        <mxCell id="koVC8w1GK1J-4nf__hGJ-106" style="edgeStyle=orthogonalEdgeStyle;rounded=0;orthogonalLoop=1;jettySize=auto;html=1;exitX=1;exitY=0.5;exitDx=0;exitDy=0;entryX=0;entryY=0.5;entryDx=0;entryDy=0;" edge="1" parent="1" source="koVC8w1GK1J-4nf__hGJ-97" target="koVC8w1GK1J-4nf__hGJ-105">
          <mxGeometry relative="1" as="geometry" />
        </mxCell>
        <mxCell id="koVC8w1GK1J-4nf__hGJ-97" value="" style="rounded=0;whiteSpace=wrap;html=1;" vertex="1" parent="1">
          <mxGeometry x="560" y="340" width="60" height="30" as="geometry" />
        </mxCell>
        <mxCell id="koVC8w1GK1J-4nf__hGJ-108" style="edgeStyle=orthogonalEdgeStyle;rounded=0;orthogonalLoop=1;jettySize=auto;html=1;exitX=1;exitY=0.5;exitDx=0;exitDy=0;entryX=0;entryY=0.5;entryDx=0;entryDy=0;" edge="1" parent="1" source="koVC8w1GK1J-4nf__hGJ-101" target="koVC8w1GK1J-4nf__hGJ-105">
          <mxGeometry relative="1" as="geometry" />
        </mxCell>
        <mxCell id="koVC8w1GK1J-4nf__hGJ-101" value="" style="rounded=0;whiteSpace=wrap;html=1;" vertex="1" parent="1">
          <mxGeometry x="560" y="800" width="60" height="30" as="geometry" />
        </mxCell>
        <mxCell id="koVC8w1GK1J-4nf__hGJ-105" value="" style="rounded=0;whiteSpace=wrap;html=1;" vertex="1" parent="1">
          <mxGeometry x="710" y="570" width="60" height="30" as="geometry" />
        </mxCell>
      </root>
    </mxGraphModel>
  </diagram>
</mxfile>
